<?xml version="1.0" encoding="UTF-8" standalone="no"?>
<svg
   xmlns:dc="http://purl.org/dc/elements/1.1/"
   xmlns:cc="http://creativecommons.org/ns#"
   xmlns:rdf="http://www.w3.org/1999/02/22-rdf-syntax-ns#"
   xmlns:svg="http://www.w3.org/2000/svg"
   xmlns="http://www.w3.org/2000/svg"
   xmlns:sodipodi="http://sodipodi.sourceforge.net/DTD/sodipodi-0.dtd"
   xmlns:inkscape="http://www.inkscape.org/namespaces/inkscape"
   inkscape:version="1.0 (4035a4fb49, 2020-05-01)"
   sodipodi:docname="BETOISSUES-LOGO-VERSIONES.ai"
   viewBox="0 0 1733.6603 347.01904"
   height="347.01904"
   width="1733.6603"
   xml:space="preserve"
   id="svg842"
   version="1.1"><metadata
     id="metadata848"><rdf:RDF><cc:Work
         rdf:about=""><dc:format>image/svg+xml</dc:format><dc:type
           rdf:resource="http://purl.org/dc/dcmitype/StillImage" /><dc:title></dc:title></cc:Work></rdf:RDF></metadata><defs
     id="defs846"><clipPath
       id="clipPath858"
       clipPathUnits="userSpaceOnUse"><path
         id="path856"
         d="M 0,540.484 H 1622.326 V 0 H 0 Z" /></clipPath></defs><sodipodi:namedview
     inkscape:current-layer="g850"
     inkscape:window-maximized="0"
     inkscape:window-y="0"
     inkscape:window-x="0"
     inkscape:cy="173.50945"
     inkscape:cx="866.83348"
     inkscape:zoom="0.60052516"
     fit-margin-bottom="0"
     fit-margin-right="0"
     fit-margin-left="0"
     fit-margin-top="0"
     showgrid="false"
     id="namedview844"
     inkscape:window-height="1050"
     inkscape:window-width="2560"
     inkscape:pageshadow="2"
     inkscape:pageopacity="0"
     guidetolerance="10"
     gridtolerance="10"
     objecttolerance="10"
     borderopacity="1"
     bordercolor="#666666"
     pagecolor="#ffffff" /><g
     transform="matrix(1.3333333,0,0,-1.3333333,-214.71986,533.83212)"
     inkscape:label="BETOISSUES-LOGO-VERSIONES"
     inkscape:groupmode="layer"
     id="g850"><g
       id="g852"><g
         clip-path="url(#clipPath858)"
         id="g854"><g
           transform="translate(164.5299,294.2591)"
           id="g860"><path
             id="path862"
             style="fill:#f9ae1a;fill-opacity:1;fill-rule:nonzero;stroke:none"
             d="m 0,0 h 74.586 c 18.585,0 33,4.581 43.224,13.742 10.223,9.137 15.34,22.358 15.34,39.683 0,16.828 -5.005,29.81 -14.983,38.971 -10.001,9.138 -24.528,13.719 -43.581,13.719 H 0 c -2.33,0 -3.49,-1.234 -3.49,-3.702 V 3.702 C -3.49,1.234 -2.33,0 0,0" /></g><g
           transform="translate(293.2155,260.3626)"
           id="g864"><path
             id="path866"
             style="fill:#f9ae1a;fill-opacity:1;fill-rule:nonzero;stroke:none"
             d="m 0,0 v -77.365 c 0,-4.08 -3.31,-7.313 -7.313,-7.313 h -89.589 l -25.112,-33.795 c -3.694,-3.772 -10.161,-1.154 -10.161,4.157 l 0.077,36.027 c -0.077,0.308 -0.077,0.616 -0.077,0.924 V 0 c 0,4.08 3.31,7.391 7.39,7.391 H -7.313 C -3.31,7.391 0,4.08 0,0" /></g><g
           transform="translate(436.1071,247.534)"
           id="g868"><path
             id="path870"
             style="fill:#ffffff;fill-opacity:1;fill-rule:nonzero;stroke:none"
             d="m 0,0 c 2.769,2.327 4.156,5.695 4.156,10.108 0,4.281 -1.355,7.587 -4.062,9.917 -2.71,2.33 -6.646,3.498 -11.809,3.498 h -20.216 c -0.632,0 -0.945,-0.317 -0.945,-0.946 V -2.552 c 0,-0.631 0.313,-0.946 0.945,-0.946 h 20.216 C -6.678,-3.498 -2.772,-2.333 0,0 M -32.876,73.968 V 50.162 c 0,-0.632 0.313,-0.943 0.945,-0.943 h 18.704 c 5.164,0 9.131,1.1 11.904,3.306 2.768,2.201 4.157,5.32 4.157,9.353 0,4.155 -1.389,7.369 -4.157,9.634 -2.773,2.268 -6.74,3.403 -11.904,3.403 h -18.704 c -0.632,0 -0.945,-0.318 -0.945,-0.947 M 18.327,37.126 C 29.787,31.08 35.52,21.002 35.52,6.894 c 0,-12.595 -4.345,-21.982 -13.037,-28.152 -8.691,-6.173 -20.091,-9.258 -34.198,-9.258 h -50.257 c -0.632,0 -1.167,0.219 -1.608,0.663 -0.442,0.438 -0.66,0.974 -0.66,1.606 V 99.476 c 0,0.628 0.218,1.165 0.66,1.606 0.441,0.44 0.976,0.662 1.608,0.662 h 48.745 c 15.367,0 26.987,-2.9 34.859,-8.69 7.871,-5.797 11.81,-15.181 11.81,-28.152 0,-12.349 -5.039,-21.227 -15.115,-26.642 -0.756,-0.379 -0.756,-0.755 0,-1.134" /></g><g
           transform="translate(581.683,323.1112)"
           id="g872"><path
             id="path874"
             style="fill:#ffffff;fill-opacity:1;fill-rule:nonzero;stroke:none"
             d="m 0,0 c -0.444,-0.444 -0.979,-0.663 -1.607,-0.663 h -59.327 c -0.632,0 -0.945,-0.317 -0.945,-0.946 v -23.239 c 0,-0.632 0.313,-0.944 0.945,-0.944 h 37.976 c 0.631,0 1.164,-0.221 1.607,-0.662 0.44,-0.443 0.662,-0.977 0.662,-1.606 v -22.105 c 0,-0.632 -0.222,-1.168 -0.662,-1.606 -0.443,-0.443 -0.976,-0.662 -1.607,-0.662 h -37.976 c -0.632,0 -0.945,-0.315 -0.945,-0.946 v -24.938 c 0,-0.631 0.313,-0.946 0.945,-0.946 h 59.327 c 0.628,0 1.163,-0.222 1.607,-0.662 0.439,-0.441 0.661,-0.977 0.661,-1.606 v -22.293 c 0,-0.632 -0.222,-1.168 -0.661,-1.606 -0.444,-0.444 -0.979,-0.663 -1.607,-0.663 h -89.368 c -0.632,0 -1.166,0.219 -1.607,0.663 -0.442,0.438 -0.661,0.974 -0.661,1.606 V 23.899 c 0,0.628 0.219,1.165 0.661,1.605 0.441,0.441 0.975,0.663 1.607,0.663 h 89.368 c 0.628,0 1.163,-0.222 1.607,-0.663 0.439,-0.44 0.661,-0.977 0.661,-1.605 V 1.605 C 0.661,0.974 0.439,0.437 0,0" /></g><g
           transform="translate(694.6676,348.6156)"
           id="g876"><path
             id="path878"
             style="fill:#ffffff;fill-opacity:1;fill-rule:nonzero;stroke:none"
             d="M 0,0 C 0.439,-0.44 0.661,-0.977 0.661,-1.605 V -24.09 c 0,-0.632 -0.222,-1.165 -0.661,-1.606 -0.444,-0.44 -0.979,-0.659 -1.607,-0.659 h -33.064 c -0.632,0 -0.945,-0.317 -0.945,-0.946 v -102.028 c 0,-0.631 -0.222,-1.168 -0.661,-1.605 -0.444,-0.444 -0.977,-0.663 -1.605,-0.663 h -26.83 c -0.632,0 -1.167,0.219 -1.607,0.663 -0.442,0.437 -0.661,0.974 -0.661,1.605 v 102.028 c 0,0.629 -0.316,0.946 -0.945,0.946 h -31.93 c -0.632,0 -1.166,0.219 -1.607,0.659 -0.442,0.441 -0.661,0.974 -0.661,1.606 v 22.485 c 0,0.628 0.219,1.165 0.661,1.605 0.441,0.441 0.975,0.663 1.607,0.663 H -1.607 C -0.979,0.663 -0.444,0.441 0,0" /></g><g
           transform="translate(769.1119,247.6268)"
           id="g880"><path
             id="path882"
             style="fill:#ffffff;fill-opacity:1;fill-rule:nonzero;stroke:none"
             d="m 0,0 c 3.713,3.904 5.573,9.131 5.573,15.683 v 39.11 c 0,6.426 -1.86,11.622 -5.573,15.588 -3.717,3.969 -8.597,5.951 -14.643,5.951 -5.923,0 -10.74,-1.982 -14.455,-5.951 -3.716,-3.966 -5.573,-9.162 -5.573,-15.588 v -39.11 c 0,-6.552 1.857,-11.779 5.573,-15.683 3.715,-3.905 8.532,-5.855 14.455,-5.855 6.046,0 10.926,1.95 14.643,5.855 m -41.567,-26.547 c -7.747,4.093 -13.763,9.856 -18.043,17.289 -4.284,7.43 -6.424,16.059 -6.424,25.884 v 37.788 c 0,9.572 2.14,18.047 6.424,25.416 4.28,7.368 10.296,13.097 18.043,17.192 7.746,4.093 16.72,6.14 26.924,6.14 10.202,0 19.207,-2.047 27.018,-6.14 7.809,-4.095 13.855,-9.824 18.139,-17.192 4.28,-7.369 6.424,-15.844 6.424,-25.416 V 16.626 c 0,-9.825 -2.144,-18.454 -6.424,-25.884 -4.284,-7.433 -10.33,-13.196 -18.139,-17.289 -7.811,-4.092 -16.816,-6.139 -27.018,-6.139 -10.204,0 -19.178,2.047 -26.924,6.139" /></g><g
           transform="translate(860.9327,217.6815)"
           id="g884"><path
             id="path886"
             style="fill:#ffffff;fill-opacity:1;fill-rule:nonzero;stroke:none"
             d="m 0,0 c -0.442,0.437 -0.661,0.974 -0.661,1.605 v 127.724 c 0,0.628 0.219,1.165 0.661,1.605 0.441,0.441 0.975,0.663 1.607,0.663 h 26.83 c 0.628,0 1.162,-0.222 1.605,-0.663 0.439,-0.44 0.661,-0.977 0.661,-1.605 V 1.605 C 30.703,0.974 30.481,0.437 30.042,0 29.599,-0.444 29.065,-0.663 28.437,-0.663 H 1.607 C 0.975,-0.663 0.441,-0.444 0,0" /></g><g
           transform="translate(931.0302,220.5135)"
           id="g888"><path
             id="path890"
             style="fill:#ffffff;fill-opacity:1;fill-rule:nonzero;stroke:none"
             d="m 0,0 c -7.746,3.337 -13.731,8.126 -17.95,14.36 -4.22,6.235 -6.328,13.443 -6.328,21.635 v 3.59 c 0,0.628 0.217,1.162 0.661,1.605 0.439,0.441 0.974,0.66 1.606,0.66 H 4.251 c 0.629,0 1.164,-0.219 1.606,-0.66 0.441,-0.443 0.661,-0.977 0.661,-1.605 v -2.268 c 0,-4.157 2.079,-7.778 6.236,-10.863 4.156,-3.088 9.76,-4.629 16.816,-4.629 5.54,0 9.635,1.196 12.28,3.587 2.646,2.391 3.968,5.165 3.968,8.315 0,2.517 -0.787,4.564 -2.362,6.142 -1.576,1.571 -3.685,2.893 -6.329,3.965 -2.645,1.07 -6.739,2.552 -12.282,4.441 -0.755,0.379 -1.512,0.663 -2.266,0.851 -0.756,0.188 -1.45,0.407 -2.079,0.66 -8.19,2.647 -15.304,5.51 -21.351,8.598 -6.046,3.084 -11.211,7.368 -15.492,12.847 -4.283,5.48 -6.423,12.25 -6.423,20.312 0,7.81 2.044,14.642 6.14,20.5 4.091,5.858 9.792,10.361 17.099,13.51 7.304,3.147 15.555,4.722 24.751,4.722 9.697,0 18.421,-1.763 26.167,-5.289 7.748,-3.528 13.824,-8.502 18.234,-14.927 4.406,-6.423 6.613,-13.791 6.613,-22.106 v -2.644 c 0,-0.632 -0.222,-1.168 -0.661,-1.606 -0.444,-0.444 -0.979,-0.662 -1.607,-0.662 H 47.707 c -0.632,0 -1.166,0.218 -1.605,0.662 -0.443,0.438 -0.662,0.974 -0.662,1.606 v 1.322 c 0,4.407 -1.955,8.311 -5.857,11.714 -3.906,3.402 -9.134,5.1 -15.682,5.1 -4.913,0 -8.756,-1.008 -11.525,-3.023 -2.772,-2.016 -4.157,-4.848 -4.157,-8.5 0,-2.773 0.88,-5.072 2.646,-6.897 1.761,-1.827 4.501,-3.528 8.219,-5.103 3.713,-1.575 9.413,-3.621 17.099,-6.139 8.814,-3.023 15.682,-5.67 20.594,-7.935 4.912,-2.268 9.541,-5.954 13.886,-11.055 4.347,-5.1 6.52,-11.809 6.52,-20.12 0,-8.192 -2.079,-15.243 -6.236,-21.163 C 66.791,7.587 60.963,3.023 53.47,-0.188 45.975,-3.399 37.251,-5.005 27.301,-5.005 16.845,-5.005 7.746,-3.338 0,0" /></g><g
           transform="translate(1044.2045,220.5135)"
           id="g892"><path
             id="path894"
             style="fill:#ffffff;fill-opacity:1;fill-rule:nonzero;stroke:none"
             d="m 0,0 c -7.746,3.337 -13.731,8.126 -17.95,14.36 -4.22,6.235 -6.328,13.443 -6.328,21.635 v 3.59 c 0,0.628 0.217,1.162 0.661,1.605 0.439,0.441 0.974,0.66 1.606,0.66 H 4.251 c 0.629,0 1.164,-0.219 1.606,-0.66 0.441,-0.443 0.661,-0.977 0.661,-1.605 v -2.268 c 0,-4.157 2.078,-7.778 6.236,-10.863 4.156,-3.088 9.76,-4.629 16.815,-4.629 5.541,0 9.636,1.196 12.281,3.587 2.646,2.391 3.968,5.165 3.968,8.315 0,2.517 -0.787,4.564 -2.362,6.142 -1.577,1.571 -3.685,2.893 -6.329,3.965 -2.645,1.07 -6.739,2.552 -12.282,4.441 -0.755,0.379 -1.512,0.663 -2.267,0.851 -0.755,0.188 -1.45,0.407 -2.078,0.66 -8.19,2.647 -15.304,5.51 -21.351,8.598 -6.046,3.084 -11.211,7.368 -15.492,12.847 -4.283,5.48 -6.423,12.25 -6.423,20.312 0,7.81 2.044,14.642 6.14,20.5 4.091,5.858 9.792,10.361 17.099,13.51 7.304,3.147 15.555,4.722 24.751,4.722 9.697,0 18.421,-1.763 26.167,-5.289 7.748,-3.528 13.823,-8.502 18.234,-14.927 4.406,-6.423 6.613,-13.791 6.613,-22.106 v -2.644 c 0,-0.632 -0.222,-1.168 -0.661,-1.606 -0.444,-0.444 -0.979,-0.662 -1.607,-0.662 H 47.707 c -0.632,0 -1.166,0.218 -1.606,0.662 -0.442,0.438 -0.661,0.974 -0.661,1.606 v 1.322 c 0,4.407 -1.955,8.311 -5.857,11.714 -3.906,3.402 -9.134,5.1 -15.683,5.1 -4.912,0 -8.755,-1.008 -11.524,-3.023 -2.772,-2.016 -4.157,-4.848 -4.157,-8.5 0,-2.773 0.88,-5.072 2.646,-6.897 1.761,-1.827 4.5,-3.528 8.219,-5.103 3.713,-1.575 9.413,-3.621 17.099,-6.139 8.814,-3.023 15.681,-5.67 20.594,-7.935 4.912,-2.268 9.541,-5.954 13.886,-11.055 4.347,-5.1 6.519,-11.809 6.519,-20.12 0,-8.192 -2.078,-15.243 -6.235,-21.163 C 66.791,7.587 60.963,3.023 53.47,-0.188 45.975,-3.399 37.251,-5.005 27.301,-5.005 16.845,-5.005 7.746,-3.338 0,0" /></g><g
           transform="translate(1160.0243,221.2684)"
           id="g896"><path
             id="path898"
             style="fill:#ffffff;fill-opacity:1;fill-rule:nonzero;stroke:none"
             d="m 0,0 c -7.623,3.843 -13.543,9.288 -17.76,16.346 -4.222,7.05 -6.33,15.177 -6.33,24.373 v 85.023 c 0,0.628 0.219,1.165 0.661,1.605 0.439,0.441 0.974,0.663 1.606,0.663 H 5.006 c 0.629,0 1.164,-0.222 1.606,-0.663 0.441,-0.44 0.663,-0.977 0.663,-1.605 V 40.719 c 0,-5.923 1.728,-10.675 5.195,-14.265 3.463,-3.591 8.092,-5.384 13.887,-5.384 5.669,0 10.233,1.793 13.698,5.384 3.463,3.59 5.196,8.342 5.196,14.265 v 85.023 c 0,0.628 0.219,1.165 0.661,1.605 0.441,0.441 0.974,0.663 1.606,0.663 h 26.829 c 0.629,0 1.164,-0.222 1.606,-0.663 0.441,-0.44 0.662,-0.977 0.662,-1.605 V 40.719 C 76.615,31.523 74.537,23.396 70.38,16.346 66.224,9.288 60.333,3.843 52.713,0 45.091,-3.843 36.306,-5.76 26.357,-5.76 16.404,-5.76 7.62,-3.843 0,0" /></g><g
           transform="translate(1347.6398,323.1112)"
           id="g900"><path
             id="path902"
             style="fill:#ffffff;fill-opacity:1;fill-rule:nonzero;stroke:none"
             d="m 0,0 c -0.444,-0.444 -0.978,-0.663 -1.607,-0.663 h -59.327 c -0.632,0 -0.944,-0.317 -0.944,-0.946 v -23.239 c 0,-0.632 0.312,-0.944 0.944,-0.944 h 37.976 c 0.631,0 1.164,-0.221 1.608,-0.662 0.439,-0.443 0.661,-0.977 0.661,-1.606 v -22.105 c 0,-0.632 -0.222,-1.168 -0.661,-1.606 -0.444,-0.443 -0.977,-0.662 -1.608,-0.662 h -37.976 c -0.632,0 -0.944,-0.315 -0.944,-0.946 v -24.938 c 0,-0.631 0.312,-0.946 0.944,-0.946 h 59.327 c 0.629,0 1.163,-0.222 1.607,-0.662 0.439,-0.441 0.661,-0.977 0.661,-1.606 v -22.293 c 0,-0.632 -0.222,-1.168 -0.661,-1.606 -0.444,-0.444 -0.978,-0.663 -1.607,-0.663 h -89.368 c -0.631,0 -1.166,0.219 -1.607,0.663 -0.442,0.438 -0.661,0.974 -0.661,1.606 V 23.899 c 0,0.628 0.219,1.165 0.661,1.605 0.441,0.441 0.976,0.663 1.607,0.663 h 89.368 c 0.629,0 1.163,-0.222 1.607,-0.663 0.439,-0.44 0.661,-0.977 0.661,-1.605 V 1.605 C 0.661,0.974 0.439,0.437 0,0" /></g><g
           transform="translate(1384.1031,220.5135)"
           id="g904"><path
             id="path906"
             style="fill:#ffffff;fill-opacity:1;fill-rule:nonzero;stroke:none"
             d="m 0,0 c -7.746,3.337 -13.731,8.126 -17.95,14.36 -4.22,6.235 -6.328,13.443 -6.328,21.635 v 3.59 c 0,0.628 0.217,1.162 0.661,1.605 0.439,0.441 0.974,0.66 1.606,0.66 H 4.251 c 0.629,0 1.164,-0.219 1.606,-0.66 0.441,-0.443 0.661,-0.977 0.661,-1.605 v -2.268 c 0,-4.157 2.078,-7.778 6.236,-10.863 4.156,-3.088 9.76,-4.629 16.815,-4.629 5.541,0 9.636,1.196 12.281,3.587 2.646,2.391 3.968,5.165 3.968,8.315 0,2.517 -0.787,4.564 -2.362,6.142 -1.577,1.571 -3.685,2.893 -6.329,3.965 -2.645,1.07 -6.739,2.552 -12.282,4.441 -0.755,0.379 -1.512,0.663 -2.267,0.851 -0.755,0.188 -1.45,0.407 -2.078,0.66 -8.19,2.647 -15.304,5.51 -21.351,8.598 -6.046,3.084 -11.211,7.368 -15.492,12.847 -4.283,5.48 -6.423,12.25 -6.423,20.312 0,7.81 2.044,14.642 6.14,20.5 4.091,5.858 9.792,10.361 17.099,13.51 7.304,3.147 15.555,4.722 24.751,4.722 9.697,0 18.421,-1.763 26.167,-5.289 7.748,-3.528 13.823,-8.502 18.234,-14.927 4.406,-6.423 6.613,-13.791 6.613,-22.106 v -2.644 c 0,-0.632 -0.222,-1.168 -0.661,-1.606 -0.444,-0.444 -0.979,-0.662 -1.607,-0.662 H 47.707 c -0.632,0 -1.166,0.218 -1.606,0.662 -0.442,0.438 -0.661,0.974 -0.661,1.606 v 1.322 c 0,4.407 -1.955,8.311 -5.857,11.714 -3.906,3.402 -9.134,5.1 -15.683,5.1 -4.912,0 -8.755,-1.008 -11.524,-3.023 -2.772,-2.016 -4.157,-4.848 -4.157,-8.5 0,-2.773 0.88,-5.072 2.646,-6.897 1.761,-1.827 4.5,-3.528 8.219,-5.103 3.713,-1.575 9.413,-3.621 17.099,-6.139 8.814,-3.023 15.681,-5.67 20.594,-7.935 4.912,-2.268 9.541,-5.954 13.886,-11.055 4.347,-5.1 6.519,-11.809 6.519,-20.12 0,-8.192 -2.078,-15.243 -6.235,-21.163 C 66.791,7.587 60.963,3.023 53.47,-0.188 45.975,-3.399 37.251,-5.005 27.301,-5.005 16.845,-5.005 7.746,-3.338 0,0" /></g></g></g></g></svg>
